<svg 
 xmlns="http://www.w3.org/2000/svg"
 xmlns:xlink="http://www.w3.org/1999/xlink"
 width="24px" height="24px">
<defs>
<linearGradient id="PSgrad_0" x1="0%" x2="70.711%" y1="0%" y2="70.711%">
  <stop offset="0%" stop-color="rgb(0,159,197)" stop-opacity="1" />
  <stop offset="100%" stop-color="rgb(60,236,176)" stop-opacity="1" />
</linearGradient>

</defs>
<path fill-rule="evenodd"  fill="url(#PSgrad_0)"
 d="M12.000,23.988 C5.373,23.988 -0.000,18.615 -0.000,11.989 C-0.000,5.361 5.373,-0.011 12.000,-0.011 C18.627,-0.011 24.000,5.361 24.000,11.989 C24.000,18.615 18.627,23.988 12.000,23.988 ZM12.000,2.989 C7.029,2.989 3.000,7.018 3.000,11.989 C3.000,16.959 7.029,20.989 12.000,20.989 C16.971,20.989 21.000,16.959 21.000,11.989 C21.000,7.018 16.971,2.989 12.000,2.989 ZM18.000,13.488 L12.000,13.488 C11.175,13.488 10.507,12.826 10.500,12.004 L10.500,5.973 C10.500,5.149 11.172,4.473 12.000,4.473 C12.828,4.473 13.500,5.149 13.500,5.973 L13.500,10.488 L18.000,10.488 C18.828,10.488 19.500,11.160 19.500,11.989 C19.500,12.817 18.828,13.488 18.000,13.488 Z"/>
</svg>