<svg 
 xmlns="http://www.w3.org/2000/svg"
 xmlns:xlink="http://www.w3.org/1999/xlink"
 width="24px" height="24px">
<defs>
<linearGradient id="PSgrad_0" x1="0%" x2="70.711%" y1="0%" y2="70.711%">
  <stop offset="0%" stop-color="rgb(121,86,236)" stop-opacity="1" />
  <stop offset="100%" stop-color="rgb(47,185,248)" stop-opacity="1" />
</linearGradient>

</defs>
<path fill-rule="evenodd"  fill="url(#PSgrad_0)"
 d="M23.260,9.001 L16.455,9.001 C15.630,9.001 15.430,8.533 16.030,7.936 L18.340,5.636 C16.701,4.008 14.442,3.001 11.946,3.001 C7.345,3.001 3.550,6.425 2.985,10.854 C2.985,10.854 2.811,12.001 1.506,12.001 C0.675,12.001 -0.000,11.329 -0.000,10.501 C-0.000,10.388 0.015,10.276 0.037,10.171 C0.922,4.411 5.917,0.000 11.948,0.000 C15.277,0.000 18.289,1.343 20.471,3.515 L22.941,1.055 C23.526,0.473 24.000,0.676 24.000,1.486 L24.000,8.266 C24.000,8.670 23.655,9.001 23.260,9.001 ZM0.739,14.999 L7.545,14.999 L7.545,15.000 C8.370,15.000 8.569,15.468 7.969,16.065 L5.659,18.366 C7.296,19.996 9.558,21.000 12.054,21.000 C16.656,21.000 20.451,17.576 21.018,13.148 C21.018,13.148 21.192,12.001 22.497,12.001 C23.325,12.001 24.000,12.673 24.000,13.501 C24.000,13.615 23.985,13.725 23.962,13.830 C23.077,19.591 18.082,24.001 12.052,24.001 C8.722,24.001 5.710,22.658 3.529,20.486 L1.059,22.947 C0.474,23.528 -0.000,23.325 -0.000,22.514 L-0.000,15.734 C-0.000,15.329 0.345,14.999 0.739,14.999 Z"/>
</svg>